<?xml version="1.0"?>
<svg width="300" height="101.4910110983811" xmlns="http://www.w3.org/2000/svg" xmlns:svg="http://www.w3.org/2000/svg" class="css-1j8o68f" version="1.1">
 <defs id="SvgjsDefs10989">
  <linearGradient id="SvgjsLinearGradient10994">
   <stop id="SvgjsStop10995" offset="0" stop-color="#ef4136"/>
   <stop id="SvgjsStop10996" offset="1" stop-color="#fbb040"/>
  </linearGradient>
 </defs>
 <g class="layer">
  <title>Layer 1</title>
  <g fill="url(#SvgjsLinearGradient10994)" id="SvgjsG10990" transform="matrix(0.8277789588550654,0,0,0.8277789588550654,-1.4980845825363693,20.448785234598923)">
   <path d="m59.5,3.08c-4.8,0 -8.6,4.16 -8.75,9.2a1.25,1.25 0 0 0 -0.01,0.16l0,0.05l0,0c0,0.03 0,0.05 0,0.08a1.25,1.25 0 0 0 0,0.12l-0.01,6.07a1.25,1.25 0 0 0 0.03,0.27a1.25,1.25 0 0 0 0,0c0.09,2.79 1.09,5.34 2.71,7.31c-1.7,2.03 -2.72,4.71 -2.76,7.62a1.25,1.25 0 0 0 -0.01,0.18l-0.04,21.65a1.25,1.25 0 0 0 0,0.01c0,0 0,0 0,0l0,0.17a1.25,1.25 0 0 0 0.02,0.21a1.25,1.25 0 0 0 0,0.01c0.06,3.22 1.31,6.14 3.36,8.21c-2.12,2.14 -3.4,5.18 -3.4,8.49l0,0a1.25,1.25 0 0 0 -0.01,0.12l-0.03,15.39a1.25,1.25 0 0 0 0,0.02c0,0 0,0 0,0l0,0.16a1.25,1.25 0 0 0 0.02,0.22c0.19,4.99 3.98,9.1 8.74,9.1c2.99,0 5.59,-1.61 7.17,-4.05c0.49,0.24 1,0.44 1.53,0.59c5.4,1.5 10.87,-2.12 12.2,-7.87c0.05,-0.23 0.09,-0.46 0.13,-0.7c4.82,1.82 10.37,-0.26 13.03,-5.17c2.12,-3.9 1.95,-8.56 -0.08,-12.19c1.39,-1.25 2.58,-2.8 3.47,-4.63c3.35,-6.86 1.42,-15.25 -4.33,-19.63c0.71,-1.55 1.12,-3.28 1.12,-5.11c0,-5.66 -3.79,-10.45 -8.84,-11.39c2.11,-5.45 0.6,-11.91 -4.01,-15.55c-2.67,-2.1 -5.91,-2.81 -8.96,-2.27c-1.26,0.23 -2.48,0.68 -3.62,1.33c-0.59,-4.57 -4.2,-8.18 -8.67,-8.18zm-10.77,0.02a47.45,47.45 0 0 0 -8.94,0.93l0.01,0l0,0a9.26,9.26 0 0 1 0.11,0.24l0.03,0.06a9.26,9.26 0 0 1 -4.97,12.11a9.26,9.26 0 0 1 -12.12,-4.95a9.26,9.26 0 0 1 -0.12,-0.33a47.45,47.45 0 0 0 -12.9,12.97a9.26,9.26 0 0 1 4.44,4.67l0.03,0.06a9.26,9.26 0 0 1 -4.98,12.11a9.26,9.26 0 0 1 -6.57,0.21a47.45,47.45 0 0 0 -0.02,18.72a9.26,9.26 0 0 1 0.3,-0.14a9.26,9.26 0 0 1 12.13,4.91l0.03,0.06a9.26,9.26 0 0 1 -4.97,12.1a9.26,9.26 0 0 1 -0.37,0.14a47.45,47.45 0 0 0 13.21,13.09a9.26,9.26 0 0 1 4.88,-4.84a9.26,9.26 0 0 1 12.14,4.9l0.03,0.07a9.26,9.26 0 0 1 0.09,6.87a47.45,47.45 0 0 0 8.53,0.82l0,-27.98a19.42,19.42 0 0 1 -17.4,-11.85a19.42,19.42 0 0 1 10.33,-25.43a19.42,19.42 0 0 1 7.07,-1.51l0,-28.01zm10.77,2.48c3.41,0 6.26,3.05 6.26,6.99a1.25,1.25 0 0 0 0.07,0.42c-0.68,0.64 -1.3,1.37 -1.84,2.2a1.25,1.25 0 1 0 2.09,1.37c3.09,-4.73 8.87,-5.75 13.13,-2.4c4.26,3.36 5.27,10.01 2.17,14.73c-1.75,2.68 -4.39,4.14 -7.11,4.31c-0.28,0.02 -0.55,0.01 -0.82,0c-0.07,-2.91 -1.2,-5.77 -3.37,-7.86c1.23,-1.87 1.96,-4.14 1.98,-6.58a1.25,1.25 0 1 0 -2.5,-0.03c-0.05,5.09 -3.78,9.03 -8.24,8.98c-4.46,-0.05 -8.13,-4.08 -8.08,-9.17a1.25,1.25 0 0 0 0,-0.12a1.25,1.25 0 0 0 -0.01,-0.03l0.01,-5.29l0,-0.62c0.05,-3.89 2.88,-6.9 6.26,-6.9zm8.97,21.69c3.01,3.04 3.31,8.29 0.6,11.71c-0.22,0.28 -0.45,0.53 -0.68,0.76c-0.11,0.11 -0.23,0.19 -0.34,0.29c-0.09,-0.12 -0.17,-0.25 -0.26,-0.37c-1.63,-2.14 -4.02,-3.6 -6.8,-3.88a1.25,1.25 0 0 0 -0.12,0a1.25,1.25 0 0 0 -0.12,2.49c4.08,0.4 7.2,4.4 6.83,9.07c-0.06,0.73 -0.2,1.43 -0.42,2.09a1.25,1.25 0 1 0 2.38,0.76c0.27,-0.84 0.45,-1.72 0.53,-2.65c0.15,-1.86 -0.15,-3.66 -0.8,-5.27c0.64,-0.5 1.23,-1.07 1.75,-1.73c1.15,-1.44 1.88,-3.11 2.22,-4.84c2.91,0.13 5.82,-0.9 8.11,-2.96c0.2,-0.17 0.39,-0.36 0.58,-0.55c0.56,-0.58 1.08,-1.22 1.55,-1.93c0.03,-0.05 0.06,-0.11 0.09,-0.16c4.17,0.36 7.53,4.19 7.53,9.03c0,1.31 -0.25,2.55 -0.69,3.66c-0.02,0.05 -0.04,0.09 -0.06,0.13c-1.5,-0.76 -3.07,-1.23 -4.65,-1.39c-1.53,-0.15 -3.06,-0.01 -4.53,0.37c-0.48,-1.33 -1.37,-2.5 -2.64,-3.26a1.25,1.25 0 0 0 -0.71,-0.19a1.25,1.25 0 0 0 -0.58,2.33c1.65,0.99 2.32,3.41 1.38,5.31c-0.15,0.29 -0.33,0.56 -0.52,0.78a1.25,1.25 0 1 0 1.9,1.63c0.33,-0.39 0.61,-0.82 0.85,-1.3c0.45,-0.9 0.68,-1.86 0.7,-2.82c2.69,-0.76 5.6,-0.49 8.26,1.07c5.61,3.29 7.8,11.08 4.76,17.33c-1.51,3.1 -3.98,5.2 -6.76,6.15c-1.25,0.42 -2.48,0.31 -3.81,-0.39s-2.72,-2.01 -3.98,-3.97a1.25,1.25 0 0 0 -0.02,-0.03c1.75,-1.39 2.92,-3.58 3.03,-6.06a1.25,1.25 0 0 0 -1.22,-1.32a1.25,1.25 0 0 0 -1.28,1.22c-0.13,3.08 -2.44,5.32 -5.07,5.19c-0.41,-0.02 -0.81,-0.1 -1.18,-0.23a1.25,1.25 0 1 0 -0.8,2.37c0.59,0.2 1.21,0.32 1.85,0.35c0.87,0.05 1.7,-0.08 2.48,-0.34a1.25,1.25 0 0 0 0.11,0.2c1.43,2.23 3.08,3.88 4.92,4.84c1.83,0.96 3.88,1.18 5.78,0.53c0.93,-0.31 1.83,-0.75 2.68,-1.27c1.46,2.84 1.56,6.47 -0.08,9.49c-2.27,4.18 -6.83,5.64 -10.69,3.7c-0.27,-4.5 -3.12,-8.54 -7.42,-9.77c0.34,-2.08 -0.08,-4.29 -1.34,-6.12a1.25,1.25 0 0 0 -1.06,-0.56a1.25,1.25 0 0 0 -1.22,1.43a1.25,1.25 0 0 0 0.03,0.13a1.25,1.25 0 0 0 0.19,0.41c1.65,2.42 1.19,5.93 -0.98,7.71c-0.34,0.28 -0.69,0.5 -1.06,0.67a1.25,1.25 0 1 0 1.03,2.27c0.57,-0.25 1.11,-0.59 1.62,-1.01c0.87,-0.71 1.54,-1.59 2.02,-2.55a1.25,1.25 0 0 0 0.03,0c3.98,1.11 6.5,5.65 5.45,10.19c-0.79,3.4 -3.26,5.71 -6.13,6.19c-0.24,0.04 -0.48,0.07 -0.73,0.08c-0.49,0.03 -0.98,0 -1.48,-0.08c-0.25,-0.04 -0.5,-0.1 -0.75,-0.17c-0.39,-0.1 -0.76,-0.26 -1.13,-0.43c0.33,-1 0.52,-2.07 0.52,-3.18a1.25,1.25 0 0 0 -2.5,-0.09a1.25,1.25 0 0 0 0,0.09c0,3.68 -2.51,6.6 -5.63,6.95c-0.21,0.02 -0.42,0.03 -0.63,0.03c-3.4,0 -6.26,-3.05 -6.26,-6.98c0,0 0,0 0,0l0.03,-14.95a1.25,1.25 0 0 0 0,-0.16c-0.21,-5 3.21,-9.12 7.57,-9.47c0.48,1.29 1.27,2.47 2.38,3.39c0.5,0.41 1.05,0.75 1.61,1.01a1.25,1.25 0 1 0 1.03,-2.28c-0.36,-0.16 -0.72,-0.38 -1.05,-0.66c-2.17,-1.79 -2.64,-5.3 -0.98,-7.71a1.25,1.25 0 0 0 -1.04,-1.97a1.25,1.25 0 0 0 -1.03,0.55c-1.07,1.57 -1.53,3.42 -1.43,5.21c-1.52,0.17 -2.93,0.68 -4.18,1.45c-1.76,-1.68 -2.89,-4.18 -2.85,-7l0.02,-10.7l0.02,-10.83a1.25,1.25 0 0 0 0,-0.1c-0.02,-2.36 0.77,-4.5 2.06,-6.11c1.7,1.31 3.77,2.09 6.03,2.12c2.77,0.03 5.28,-1.1 7.18,-2.94z" id="path6"/>
  </g>
  <text fill="#000000" font-family="Helvetica" font-size="24" font-weight="bold" id="svg_3" stroke="#000000" stroke-width="0" text-anchor="middle" transform="matrix(1.78679, 0, 0, 1.58379, -146.61, -43.0619)" x="188.6" xml:space="preserve" y="74.92">TLDRIFYY</text>
 </g>
</svg>